<svg width="387" height="211" viewBox="0 0 387 211" fill="none" xmlns="http://www.w3.org/2000/svg">
<path d="M0.104752 149.698C-0.0874236 149.498 0.00866417 148.098 0.20084 147.998C2.50695 147.998 8.46441 148.298 11.5392 148.298C16.4397 148.298 21.0519 148.098 28.0664 148.098C39.2126 148.098 44.7857 153.798 44.7857 162.799C44.7857 170.7 39.5969 175.701 33.6395 178.101C33.4473 178.201 33.4473 178.601 33.5434 178.701C35.7534 182.802 44.4974 197.803 49.5901 202.804C53.4336 206.604 54.1062 206.904 58.5262 207.305C58.6223 207.605 58.4302 208.705 58.238 209.005C53.1453 209.605 45.17 209.305 41.5187 207.705C39.7891 206.904 37.9634 205.204 37.0986 203.904C33.4473 199.604 27.3937 188.102 24.1267 182.802C23.5502 181.602 22.6854 180.701 21.5324 180.701C20.8598 180.701 18.8419 180.801 18.1693 180.801C17.9771 180.801 17.7849 181.202 17.7849 181.402C17.7849 187.402 17.881 196.303 17.9771 201.204C18.1693 205.204 18.6497 206.004 20.8598 206.504C22.1089 206.804 23.0698 206.904 25.3759 207.305C25.6642 207.605 25.5681 208.605 25.2798 209.005C23.0698 209.005 18.7458 208.705 12.5962 208.705C5.00524 208.705 1.64216 209.005 0.393016 209.005C0.104752 208.805 0.104752 207.505 0.393016 207.405C2.31478 207.105 3.27566 207.005 4.33262 206.704C6.44656 206.204 7.02309 204.904 7.11917 201.204C7.31135 198.304 7.40744 182.702 7.40744 176.801C7.40744 168.4 7.40744 160.099 7.21526 155.299C7.11917 152.298 6.35047 150.798 4.33262 150.298C3.17957 150.098 1.64216 149.798 0.104752 149.698ZM21.0519 150.598C20.4754 150.598 19.6106 150.598 18.6497 150.998C18.2654 151.198 18.0732 151.998 18.0732 152.398C17.881 154.198 17.7849 160.999 17.7849 177.401C17.7849 177.601 18.1693 177.901 18.2654 177.901C22.3011 178.301 27.1055 178.101 29.3155 177.001C31.8138 175.801 34.216 173.001 34.216 165.7C34.216 157.099 29.7959 150.598 21.0519 150.598Z" fill="white"/>
<path d="M55.4319 172.601C55.3358 172.301 55.528 171.1 55.7202 170.9C59.7559 170.8 66.9625 170.4 70.9021 169.3C70.5177 171 70.3255 175.901 70.3255 186.302C70.3255 192.803 70.3255 196.503 70.806 198.404C71.4786 201.404 73.4964 203.504 77.5321 203.504C79.55 203.504 81.5678 202.904 83.1052 201.604C83.6818 201.104 83.97 200.104 84.0661 199.404C84.1622 197.403 84.1622 183.002 83.97 176.501C83.97 175.401 83.5857 174.001 82.2404 173.501C80.8952 173.101 79.0695 172.901 76.9556 172.601C76.8595 172.2 76.9556 171.2 77.1478 170.9C84.1622 170.9 91.3688 170 94.0593 169.5C93.9632 171.5 93.8671 177.001 93.8671 180.501V199.904C93.9632 202.804 94.4436 204.004 96.0771 204.004C97.2302 204.104 97.8067 204.104 99.248 204.004C99.248 204.304 99.248 205.504 98.9598 205.804C95.4045 207.105 87.1409 209.905 84.7387 210.205C84.5466 210.005 84.2583 209.805 84.1622 209.405C84.0661 208.305 83.97 205.504 83.97 203.704C83.97 203.504 83.6818 203.304 83.4896 203.504C78.7813 207.805 74.8417 209.805 71.2864 209.805C63.3111 209.805 60.5246 204.404 60.5246 197.203C60.5246 192.403 60.6207 181.802 60.4285 177.101C60.3324 174.801 60.2363 173.901 58.795 173.301C58.0263 173.001 56.681 172.801 55.4319 172.601Z" fill="white"/>
<path d="M101.619 207.305C103.061 207.105 103.637 206.905 104.694 206.504C106.328 205.904 106.424 204.004 106.52 201.904C106.712 197.703 106.808 183.302 106.52 178.901C106.52 178.301 106.424 177.201 105.943 176.401C105.271 175.501 103.541 174.601 101.908 174.301C101.908 174.001 102.1 172.801 102.196 172.601C107.385 172 113.534 170.2 116.417 168.5C116.609 168.6 116.705 168.8 116.705 169C116.609 169.8 116.513 173.801 116.513 175.101C116.513 175.301 116.897 175.401 116.994 175.301C122.663 170.5 126.41 168.8 129.773 168.8C134.001 168.8 137.46 171.4 139.382 175.501C139.382 175.601 139.67 175.701 139.862 175.501C145.628 170.8 149.663 168.8 153.411 168.8C160.425 168.8 164.269 174.701 164.269 183.802L164.557 203.704C164.557 204.304 164.653 205.204 165.038 205.604C165.902 206.704 167.344 206.904 169.65 207.305C169.65 207.605 169.554 208.705 169.361 209.005C167.536 209.005 164.749 208.705 159.176 208.705C154.756 208.705 152.258 208.805 149.567 209.005C149.375 208.705 149.375 207.505 149.471 207.305C151.105 207.005 152.258 206.704 152.93 206.404C154.18 205.904 154.372 204.204 154.468 201.004C154.564 194.403 154.66 185.902 154.083 182.002C153.603 179.101 151.585 175.201 146.396 175.201C144.667 175.201 142.361 175.801 140.247 177.601C140.055 177.801 140.151 178.301 140.151 178.501C140.535 180.701 140.535 184.302 140.535 185.402C140.535 190.703 140.535 199.504 140.631 203.504C140.631 204.504 141.016 205.504 141.592 205.904C142.649 206.604 144.282 207.105 146.108 207.305C146.3 207.605 146.204 208.705 145.916 209.005C142.553 208.905 139.094 208.705 134.962 208.705C130.83 208.705 127.563 208.905 125.353 209.005C125.161 208.705 125.161 207.605 125.353 207.305C126.987 207.105 128.044 207.005 129.005 206.604C130.254 206.104 130.35 204.504 130.542 202.704C130.638 197.003 130.734 184.002 130.254 181.302C129.677 178.401 127.851 175.001 122.951 175.001C121.221 175.001 119.3 175.701 117.762 176.801C117.09 177.301 116.513 178.101 116.513 179.001C116.513 186.102 116.609 196.703 116.609 203.004C116.609 205.104 116.994 206.204 119.011 206.804C119.78 207.005 120.933 207.105 121.894 207.305C122.086 207.505 121.894 208.805 121.702 209.005C118.531 208.905 114.783 208.705 110.94 208.705C105.079 208.705 104.694 208.905 101.619 209.005C101.331 208.705 101.427 207.405 101.619 207.305Z" fill="white"/>
<path d="M187.359 155.099C187.359 156.999 186.302 158.899 185.149 159.799C184.38 160.199 180.921 160.799 179.768 160.299C178.231 159.699 177.558 157.699 177.462 156.399C177.27 155.199 177.462 153.498 178.039 152.698C178.903 151.898 181.498 150.998 183.131 150.998C184.957 150.998 186.206 151.798 186.59 152.098C187.167 152.898 187.359 154.398 187.359 155.099ZM192.452 207.305C192.452 207.605 192.452 208.805 192.068 209.005C189.761 209.005 186.206 208.705 182.459 208.705C177.654 208.705 174.291 209.005 172.273 209.005C172.081 208.805 172.081 207.405 172.273 207.305C173.426 207.205 174.676 207.005 175.54 206.604C176.886 206.104 177.27 204.904 177.366 202.404C177.462 200.104 177.558 192.403 177.558 187.402C177.558 183.702 177.558 179.401 177.366 177.901C177.366 177.101 177.27 176.101 176.693 175.301C175.829 174.401 174.964 174.101 173.426 173.601C173.33 173.401 173.33 172.1 173.426 171.9C175.829 171.8 183.227 170.6 187.455 168.5C187.455 171 187.263 179.701 187.263 185.402C187.263 190.603 187.263 198.304 187.359 202.704C187.455 205.404 188.032 206.104 189.281 206.604C189.954 206.804 190.818 207.105 192.452 207.305Z" fill="white"/>
<path d="M267.458 205.204C267.554 205.404 267.458 206.604 267.266 206.704C263.807 207.805 254.39 210.505 246.031 210.505C225.083 210.505 212.976 200.504 212.976 178.101C212.976 165 219.318 154.798 229.696 150.098C234.884 147.798 240.073 146.498 248.433 146.498C256.024 146.498 262.462 148.298 266.786 148.698C266.017 151.698 265.152 158.999 265.152 163.9C264.96 164.3 263.423 164.4 263.134 164.1C262.558 157.499 261.501 154.498 259.003 152.698C255.639 150.098 251.315 148.998 245.55 148.998C234.212 148.998 225.083 156.999 225.083 176.801C225.083 195.703 233.827 208.105 247.568 208.105C249.682 208.105 251.7 207.805 252.565 207.405C253.91 206.804 254.582 205.704 254.775 203.704C255.063 200.904 255.255 194.803 254.967 191.503C254.679 187.302 254.102 186.302 251.219 185.802C249.586 185.402 248.337 185.302 246.511 185.202C246.223 184.902 246.223 183.602 246.511 183.402C249.682 183.302 255.159 183.702 260.348 183.702C266.113 183.702 268.515 183.502 270.437 183.402C270.629 183.602 270.629 184.902 270.341 185.102C269.38 185.302 268.707 185.502 267.939 185.802C265.921 186.402 265.44 187.002 265.44 192.803C265.344 196.603 265.248 200.604 265.536 202.804C265.729 204.304 266.017 204.504 267.458 205.204Z" fill="white"/>
<path d="M296.565 168.8C308.48 168.8 315.495 177.401 315.495 188.802C315.495 196.503 312.516 202.804 306.655 206.604C304.349 208.205 299.832 209.905 295.508 209.905C281.864 209.905 275.906 199.804 275.906 189.002C275.906 181.302 279.366 175.901 284.266 172.501C287.437 170.3 292.145 168.8 296.565 168.8ZM294.163 171.3C293.202 171.3 291.473 171.8 290.608 172.601C288.014 174.701 286.572 178.901 286.572 186.602C286.572 199.804 291.088 207.405 297.334 207.405C298.775 207.405 300.409 206.904 301.37 205.904C303.964 203.204 304.733 198.404 304.733 191.803C304.733 180.401 301.178 171.3 294.163 171.3Z" fill="white"/>
<path d="M319.774 209.005C319.582 208.705 319.582 207.605 319.774 207.305C321.408 207.005 322.081 206.904 323.137 206.404C324.194 205.904 324.675 205.204 324.771 202.104C324.867 197.703 324.963 184.802 324.963 175.401C324.963 165.3 324.963 153.698 324.579 149.598C324.483 148.498 324.387 147.298 323.33 146.898C322.561 146.498 321.504 146.197 319.871 145.997C319.582 145.797 319.678 144.797 319.871 144.497C324.483 144.197 331.689 142.397 334.956 140.797C335.148 140.897 335.437 141.197 335.437 141.397C334.956 142.497 334.668 145.797 334.668 152.098C334.572 157.099 334.572 164.9 334.572 173.701C334.572 190.703 334.572 198.203 334.764 202.104C334.956 205.204 335.245 205.804 336.686 206.504C337.743 207.005 338.704 207.105 339.857 207.305C339.953 207.605 339.857 208.705 339.665 209.005C338.512 209.005 334.38 208.705 329.383 208.705C324.387 208.705 321.216 209.005 319.774 209.005Z" fill="white"/>
<path d="M386.5 204.304C386.5 204.604 386.308 205.704 386.116 205.904C383.137 207.505 373.816 210.405 372.087 210.505C371.799 210.505 371.51 209.905 371.414 209.505C371.318 208.805 371.318 206.004 371.318 204.504C371.318 204.404 371.126 204.204 370.934 204.304C366.994 207.005 361.421 209.805 358.058 209.805C354.118 209.805 350.755 208.005 348.257 204.704C345.567 201.404 344.125 196.403 344.125 190.703C344.125 184.602 346.816 178.301 351.044 174.801C354.983 171.6 362.382 168.8 367.667 168.8C368.82 168.8 370.165 168.9 370.934 169C371.126 169 371.414 168.8 371.414 168.6C371.414 160.199 371.318 152.298 371.126 149.698C370.934 147.998 370.742 146.698 369.108 145.997C367.955 145.597 366.418 145.197 364.688 144.997C364.496 144.697 364.688 143.597 364.88 143.397C370.549 143.397 378.525 142.097 381.888 140.797C382.08 140.897 382.176 141.397 382.176 141.597C381.503 142.997 381.407 144.397 381.215 152.998C381.119 158.699 381.119 166.8 381.119 179.401C381.119 186.702 381.215 195.903 381.311 199.304C381.503 203.704 382.08 204.204 383.041 204.304C384.194 204.404 385.059 204.304 386.5 204.304ZM362.67 171.8C360.941 171.8 358.731 172.601 357.193 174.401C355.175 176.801 354.118 180.601 354.118 185.702C354.118 196.803 359.307 203.704 366.033 203.704C367.763 203.704 369.204 203.404 370.453 202.404C370.934 202.104 371.318 201.504 371.318 200.904C371.414 197.803 371.606 183.702 371.318 179.101C371.126 176.001 369.781 174.701 368.724 173.801C366.802 172.301 364.976 171.8 362.67 171.8Z" fill="white"/>
<g clip-path="url(#clip0_497_750)">
<path d="M110.816 78.2395L151.536 127.491C151.536 127.491 155.325 131.721 159.901 132.515C164.477 133.309 179.73 132.515 179.73 132.515L140.065 85.9902C140.065 85.9902 139.506 84.4166 140.431 84.5477C140.431 84.5477 151.957 82.3667 157.686 76.7487C163.414 71.1306 165.574 68.2526 165.574 68.2526C165.878 66.9205 165.653 65.5225 164.946 64.3531C163.759 62.5379 155.097 49.4866 155.097 49.4866C155.097 49.4866 154.007 48.4652 153.717 50.4115C153.427 52.3578 150.315 61.2818 146.65 63.5249C142.985 65.7679 142.384 68.1491 132.846 68.6115C123.308 69.0739 109.283 68.5494 109.283 68.5494C109.283 68.5494 108.987 74.2986 110.816 78.2395Z" fill="white"/>
<path d="M105.701 23.7026H133.723C133.723 23.7026 142.357 24.9311 146.939 29.7831C150.304 33.2855 153.342 37.0881 156.015 41.1434C159.887 47.2239 192.229 94.1836 192.229 94.1836L230.465 37.8857L231.079 130.045C231.109 130.567 231.286 131.07 231.59 131.495C231.894 131.921 232.313 132.251 232.798 132.447H248.154V5.94429L232.28 5.66822C232.28 5.66822 229.94 5.55088 226.759 10.3959L192.657 62.1179C192.657 62.1179 165.698 22.9986 163.235 20.017C163.235 20.017 154.262 6.97265 139.969 6.08922L84.1953 6.17894L100.587 21.777C102.089 22.8653 103.855 23.5303 105.701 23.7026Z" fill="white"/>
</g>
<defs>
<clipPath id="clip0_497_750">
<rect width="163.945" height="132.866" fill="white" transform="translate(84.2031)"/>
</clipPath>
</defs>
</svg>
